<mxfile host="app.diagrams.net" modified="2023-09-29T07:39:25.658Z" agent="Mozilla/5.0 (Windows NT 10.0; Win64; x64) AppleWebKit/537.36 (KHTML, like Gecko) Chrome/117.0.0.0 Safari/537.36" etag="CHphR0qiquq5xrx74ZgE" version="22.0.0" type="google">
  <diagram name="Seite-1" id="smiEng3Kt7B0jRbbiD6Q">
    <mxGraphModel grid="1" page="1" gridSize="10" guides="1" tooltips="1" connect="1" arrows="1" fold="1" pageScale="1" pageWidth="1169" pageHeight="1654" math="0" shadow="0">
      <root>
        <mxCell id="0" />
        <mxCell id="1" parent="0" />
        <mxCell id="o9ml3QlHLof98ENYdG0p-2" value="&lt;font style=&quot;font-size: 14px;&quot; face=&quot;Verdana&quot;&gt;Roster&lt;/font&gt;" style="rounded=1;whiteSpace=wrap;html=1;fillColor=#d5e8d4;strokeColor=#82b366;fontSize=14;" vertex="1" parent="1">
          <mxGeometry x="433" y="94" width="120" height="60" as="geometry" />
        </mxCell>
        <mxCell id="o9ml3QlHLof98ENYdG0p-8" value="&lt;font style=&quot;font-size: 14px;&quot; face=&quot;Verdana&quot;&gt;Add task to task list&lt;/font&gt;" style="rounded=1;whiteSpace=wrap;html=1;fillColor=#f8cecc;strokeColor=#b85450;fontSize=14;" vertex="1" parent="1">
          <mxGeometry x="47" y="165" width="120" height="60" as="geometry" />
        </mxCell>
        <mxCell id="o9ml3QlHLof98ENYdG0p-11" value="Removed task from task list" style="rounded=1;whiteSpace=wrap;html=1;fillColor=#dae8fc;strokeColor=#6c8ebf;fontSize=14;" vertex="1" parent="1">
          <mxGeometry x="187" y="238" width="120" height="60" as="geometry" />
        </mxCell>
        <mxCell id="o9ml3QlHLof98ENYdG0p-48" value="&lt;font style=&quot;font-size: 14px;&quot; face=&quot;Verdana&quot;&gt;Executer found&lt;/font&gt;" style="rounded=1;whiteSpace=wrap;html=1;fillColor=#dae8fc;strokeColor=#6c8ebf;fontSize=14;" vertex="1" parent="1">
          <mxGeometry x="504" y="725" width="120" height="60" as="geometry" />
        </mxCell>
        <mxCell id="o9ml3QlHLof98ENYdG0p-52" value="Task List Domain" style="swimlane;whiteSpace=wrap;html=1;fillColor=#E6E6E6;fontColor=#333333;strokeColor=#666666;strokeWidth=2;" vertex="1" parent="1">
          <mxGeometry x="37" y="59" width="280" height="470" as="geometry" />
        </mxCell>
        <mxCell id="o9ml3QlHLof98ENYdG0p-9" value="&lt;font style=&quot;font-size: 14px;&quot; face=&quot;Verdana&quot;&gt;Added task to task list&lt;/font&gt;" style="rounded=1;whiteSpace=wrap;html=1;fillColor=#dae8fc;strokeColor=#6c8ebf;fontSize=14;" vertex="1" parent="o9ml3QlHLof98ENYdG0p-52">
          <mxGeometry x="150" y="106" width="120" height="60" as="geometry" />
        </mxCell>
        <mxCell id="o9ml3QlHLof98ENYdG0p-10" value="&lt;font style=&quot;font-size: 14px;&quot; face=&quot;Verdana&quot;&gt;&lt;font style=&quot;font-size: 14px;&quot;&gt;Remove task from task list&lt;/font&gt;&lt;/font&gt;" style="rounded=1;whiteSpace=wrap;html=1;fillColor=#f8cecc;strokeColor=#b85450;fontSize=14;" vertex="1" parent="o9ml3QlHLof98ENYdG0p-52">
          <mxGeometry x="10" y="179" width="120" height="60" as="geometry" />
        </mxCell>
        <mxCell id="o9ml3QlHLof98ENYdG0p-1" value="&lt;font style=&quot;font-size: 14px;&quot; face=&quot;Verdana&quot;&gt;Task List&lt;/font&gt;" style="rounded=1;whiteSpace=wrap;html=1;fillColor=#d5e8d4;strokeColor=#82b366;" vertex="1" parent="o9ml3QlHLof98ENYdG0p-52">
          <mxGeometry x="80" y="34" width="120" height="60" as="geometry" />
        </mxCell>
        <mxCell id="o9ml3QlHLof98ENYdG0p-14" value="&lt;font style=&quot;font-size: 14px;&quot; face=&quot;Verdana&quot;&gt;Change status of task&lt;/font&gt;" style="rounded=1;whiteSpace=wrap;html=1;fillColor=#f8cecc;strokeColor=#b85450;fontSize=14;" vertex="1" parent="o9ml3QlHLof98ENYdG0p-52">
          <mxGeometry x="10" y="251" width="120" height="60" as="geometry" />
        </mxCell>
        <mxCell id="o9ml3QlHLof98ENYdG0p-15" value="&lt;font face=&quot;Verdana&quot; style=&quot;font-size: 14px;&quot;&gt;&lt;span style=&quot;font-size: 14px;&quot;&gt;Changed status of task&lt;/span&gt;&lt;/font&gt;" style="rounded=1;whiteSpace=wrap;html=1;fillColor=#dae8fc;strokeColor=#6c8ebf;fontSize=14;" vertex="1" parent="o9ml3QlHLof98ENYdG0p-52">
          <mxGeometry x="150" y="252" width="120" height="60" as="geometry" />
        </mxCell>
        <mxCell id="o9ml3QlHLof98ENYdG0p-17" value="&lt;font style=&quot;font-size: 14px;&quot; face=&quot;Verdana&quot;&gt;Check status of Task&lt;/font&gt;" style="rounded=1;whiteSpace=wrap;html=1;fillColor=#f8cecc;strokeColor=#b85450;fontSize=14;" vertex="1" parent="o9ml3QlHLof98ENYdG0p-52">
          <mxGeometry x="10" y="324" width="120" height="60" as="geometry" />
        </mxCell>
        <mxCell id="o9ml3QlHLof98ENYdG0p-16" value="&lt;font face=&quot;Verdana&quot; style=&quot;font-size: 14px;&quot;&gt;&lt;span style=&quot;font-size: 14px;&quot;&gt;Returned task status&amp;nbsp;&lt;/span&gt;&lt;/font&gt;" style="rounded=1;whiteSpace=wrap;html=1;fillColor=#dae8fc;strokeColor=#6c8ebf;fontSize=14;" vertex="1" parent="o9ml3QlHLof98ENYdG0p-52">
          <mxGeometry x="150" y="324" width="120" height="60" as="geometry" />
        </mxCell>
        <mxCell id="o9ml3QlHLof98ENYdG0p-23" value="&lt;font face=&quot;Verdana&quot;&gt;&lt;span style=&quot;font-size: 14px;&quot;&gt;Get list of tasks &lt;/span&gt;&lt;font style=&quot;font-size: 11px;&quot;&gt;(with certain status)&lt;/font&gt;&lt;/font&gt;" style="rounded=1;whiteSpace=wrap;html=1;fillColor=#f8cecc;strokeColor=#b85450;" vertex="1" parent="o9ml3QlHLof98ENYdG0p-52">
          <mxGeometry x="10" y="396" width="120" height="60" as="geometry" />
        </mxCell>
        <mxCell id="uSAstvGqOspxAc8fFUS6-1" value="&lt;font face=&quot;Verdana&quot;&gt;&lt;span style=&quot;font-size: 14px;&quot;&gt;Returned list of tasks&lt;/span&gt;&lt;/font&gt;" style="rounded=1;whiteSpace=wrap;html=1;fillColor=#dae8fc;strokeColor=#6c8ebf;" vertex="1" parent="o9ml3QlHLof98ENYdG0p-52">
          <mxGeometry x="150" y="397" width="120" height="60" as="geometry" />
        </mxCell>
        <mxCell id="o9ml3QlHLof98ENYdG0p-53" value="Roster Domain" style="swimlane;whiteSpace=wrap;html=1;fillColor=#E6E6E6;fontColor=#333333;strokeColor=#666666;strokeWidth=2;" vertex="1" parent="1">
          <mxGeometry x="353" y="59" width="280" height="400" as="geometry" />
        </mxCell>
        <mxCell id="o9ml3QlHLof98ENYdG0p-13" value="&lt;font style=&quot;font-size: 14px;&quot; face=&quot;Verdana&quot;&gt;Search capable executor in internal Pool&lt;/font&gt;" style="rounded=1;whiteSpace=wrap;html=1;fillColor=#f8cecc;strokeColor=#b85450;fontSize=14;" vertex="1" parent="o9ml3QlHLof98ENYdG0p-53">
          <mxGeometry x="10" y="148" width="120" height="60" as="geometry" />
        </mxCell>
        <mxCell id="o9ml3QlHLof98ENYdG0p-12" value="&lt;font face=&quot;Verdana&quot; style=&quot;font-size: 14px;&quot;&gt;&lt;span style=&quot;font-size: 14px;&quot;&gt;Executor not found&lt;/span&gt;&lt;/font&gt;" style="rounded=1;whiteSpace=wrap;html=1;fillColor=#dae8fc;strokeColor=#6c8ebf;fontSize=14;" vertex="1" parent="o9ml3QlHLof98ENYdG0p-53">
          <mxGeometry x="150" y="178" width="120" height="60" as="geometry" />
        </mxCell>
        <mxCell id="H_Zh3vDVoUPePWBlaiok-2" value="&lt;font face=&quot;Verdana&quot; style=&quot;font-size: 14px;&quot;&gt;&lt;span style=&quot;font-size: 14px;&quot;&gt;Executor found&lt;/span&gt;&lt;/font&gt;" style="rounded=1;whiteSpace=wrap;html=1;fillColor=#dae8fc;strokeColor=#6c8ebf;fontSize=14;" vertex="1" parent="o9ml3QlHLof98ENYdG0p-53">
          <mxGeometry x="150" y="108" width="120" height="60" as="geometry" />
        </mxCell>
        <mxCell id="o9ml3QlHLof98ENYdG0p-22" value="&lt;font face=&quot;Verdana&quot; style=&quot;font-size: 14px;&quot;&gt;&lt;span style=&quot;font-size: 14px;&quot;&gt;Notify executor about assignment&lt;/span&gt;&lt;/font&gt;" style="rounded=1;whiteSpace=wrap;html=1;fillColor=#f8cecc;strokeColor=#b85450;fontSize=14;" vertex="1" parent="o9ml3QlHLof98ENYdG0p-53">
          <mxGeometry x="10" y="328" width="120" height="60" as="geometry" />
        </mxCell>
        <mxCell id="uSAstvGqOspxAc8fFUS6-2" value="&lt;font face=&quot;Verdana&quot; style=&quot;font-size: 14px;&quot;&gt;&lt;span style=&quot;font-size: 14px;&quot;&gt;Notification sent&lt;/span&gt;&lt;/font&gt;" style="rounded=1;whiteSpace=wrap;html=1;fillColor=#dae8fc;strokeColor=#6c8ebf;fontSize=14;" vertex="1" parent="o9ml3QlHLof98ENYdG0p-53">
          <mxGeometry x="150" y="328" width="120" height="60" as="geometry" />
        </mxCell>
        <mxCell id="o9ml3QlHLof98ENYdG0p-54" value="Executor Pool Domain" style="swimlane;whiteSpace=wrap;html=1;fillColor=#E6E6E6;fontColor=#333333;strokeColor=#666666;strokeWidth=2;" vertex="1" parent="1">
          <mxGeometry x="670" y="59" width="290" height="260" as="geometry" />
        </mxCell>
        <mxCell id="o9ml3QlHLof98ENYdG0p-26" value="&lt;font face=&quot;Verdana&quot; style=&quot;font-size: 14px;&quot;&gt;&lt;span style=&quot;font-size: 14px;&quot;&gt;&amp;nbsp;Executor removed&lt;/span&gt;&lt;/font&gt;" style="rounded=1;whiteSpace=wrap;html=1;fillColor=#dae8fc;strokeColor=#6c8ebf;fontSize=14;" vertex="1" parent="o9ml3QlHLof98ENYdG0p-54">
          <mxGeometry x="152" y="183" width="120" height="60" as="geometry" />
        </mxCell>
        <mxCell id="o9ml3QlHLof98ENYdG0p-29" value="&lt;font style=&quot;font-size: 14px;&quot; face=&quot;Verdana&quot;&gt;Add executor to Executor Pool&lt;/font&gt;" style="rounded=1;whiteSpace=wrap;html=1;fillColor=#f8cecc;strokeColor=#b85450;fontSize=14;" vertex="1" parent="o9ml3QlHLof98ENYdG0p-54">
          <mxGeometry x="10" y="113" width="120" height="60" as="geometry" />
        </mxCell>
        <mxCell id="o9ml3QlHLof98ENYdG0p-27" value="&lt;font style=&quot;font-size: 14px;&quot; face=&quot;Verdana&quot;&gt;Remove executor from Executor Pool&lt;/font&gt;" style="rounded=1;whiteSpace=wrap;html=1;fillColor=#f8cecc;strokeColor=#b85450;fontSize=14;" vertex="1" parent="o9ml3QlHLof98ENYdG0p-54">
          <mxGeometry x="10" y="183" width="120" height="60" as="geometry" />
        </mxCell>
        <mxCell id="o9ml3QlHLof98ENYdG0p-28" value="&lt;font face=&quot;Verdana&quot; style=&quot;font-size: 14px;&quot;&gt;&lt;span style=&quot;font-size: 14px;&quot;&gt;Executor added&lt;/span&gt;&lt;/font&gt;" style="rounded=1;whiteSpace=wrap;html=1;fillColor=#dae8fc;strokeColor=#6c8ebf;fontSize=14;" vertex="1" parent="o9ml3QlHLof98ENYdG0p-54">
          <mxGeometry x="152" y="113" width="120" height="60" as="geometry" />
        </mxCell>
        <mxCell id="o9ml3QlHLof98ENYdG0p-4" value="&lt;font style=&quot;font-size: 14px;&quot; face=&quot;Verdana&quot;&gt;Executor Pool&lt;/font&gt;" style="rounded=1;whiteSpace=wrap;html=1;fillColor=#d5e8d4;strokeColor=#82b366;fontSize=14;" vertex="1" parent="o9ml3QlHLof98ENYdG0p-54">
          <mxGeometry x="80" y="38" width="120" height="60" as="geometry" />
        </mxCell>
        <mxCell id="o9ml3QlHLof98ENYdG0p-55" value="Executor Domain" style="swimlane;whiteSpace=wrap;html=1;fillColor=#E6E6E6;fontColor=#333333;strokeColor=#666666;strokeWidth=2;startSize=23;fontSize=12;" vertex="1" parent="1">
          <mxGeometry x="670" y="335" width="291" height="264" as="geometry" />
        </mxCell>
        <mxCell id="o9ml3QlHLof98ENYdG0p-3" value="&lt;font style=&quot;font-size: 14px;&quot; face=&quot;Verdana&quot;&gt;Executor&lt;/font&gt;" style="rounded=1;whiteSpace=wrap;html=1;fillColor=#d5e8d4;strokeColor=#82b366;fontSize=14;" vertex="1" parent="o9ml3QlHLof98ENYdG0p-55">
          <mxGeometry x="80" y="37" width="120" height="60" as="geometry" />
        </mxCell>
        <mxCell id="o9ml3QlHLof98ENYdG0p-56" value="Auction Domain" style="swimlane;whiteSpace=wrap;html=1;fillColor=#E6E6E6;fontColor=#333333;strokeColor=#666666;strokeWidth=2;startSize=23;" vertex="1" parent="1">
          <mxGeometry x="353" y="474" width="280" height="465" as="geometry" />
        </mxCell>
        <mxCell id="o9ml3QlHLof98ENYdG0p-47" value="&lt;font face=&quot;Verdana&quot; style=&quot;font-size: 14px;&quot;&gt;&lt;span style=&quot;font-size: 14px;&quot;&gt;Notifications sent&lt;/span&gt;&lt;/font&gt;" style="rounded=1;whiteSpace=wrap;html=1;fillColor=#dae8fc;strokeColor=#6c8ebf;fontSize=14;" vertex="1" parent="o9ml3QlHLof98ENYdG0p-56">
          <mxGeometry x="152" y="393" width="120" height="60" as="geometry" />
        </mxCell>
        <mxCell id="o9ml3QlHLof98ENYdG0p-42" value="&lt;font style=&quot;font-size: 14px;&quot; face=&quot;Verdana&quot;&gt;Auction&lt;/font&gt;" style="rounded=1;whiteSpace=wrap;html=1;fillColor=#d5e8d4;strokeColor=#82b366;fontSize=14;" vertex="1" parent="o9ml3QlHLof98ENYdG0p-56">
          <mxGeometry x="80" y="36" width="120" height="60" as="geometry" />
        </mxCell>
        <mxCell id="o9ml3QlHLof98ENYdG0p-44" value="&lt;font face=&quot;Verdana&quot; style=&quot;font-size: 14px;&quot;&gt;&lt;span style=&quot;font-size: 14px;&quot;&gt;Auction started&lt;/span&gt;&lt;/font&gt;" style="rounded=1;whiteSpace=wrap;html=1;fillColor=#dae8fc;strokeColor=#6c8ebf;fontSize=14;" vertex="1" parent="o9ml3QlHLof98ENYdG0p-56">
          <mxGeometry x="152" y="108" width="120" height="60" as="geometry" />
        </mxCell>
        <mxCell id="Nn5GspuChgT-CxSehB_H-1" value="&lt;font face=&quot;Verdana&quot; style=&quot;font-size: 14px;&quot;&gt;&lt;span style=&quot;font-size: 14px;&quot;&gt;Start auction&lt;/span&gt;&lt;/font&gt;" style="rounded=1;whiteSpace=wrap;html=1;fillColor=#f8cecc;strokeColor=#b85450;fontSize=14;" vertex="1" parent="o9ml3QlHLof98ENYdG0p-56">
          <mxGeometry x="10" y="108" width="120" height="60" as="geometry" />
        </mxCell>
        <mxCell id="o9ml3QlHLof98ENYdG0p-45" value="&lt;font face=&quot;Verdana&quot; style=&quot;font-size: 14px;&quot;&gt;&lt;span style=&quot;font-size: 14px;&quot;&gt;Received bid for auction&lt;/span&gt;&lt;/font&gt;" style="rounded=1;whiteSpace=wrap;html=1;fillColor=#dae8fc;strokeColor=#6c8ebf;fontSize=14;" vertex="1" parent="o9ml3QlHLof98ENYdG0p-56">
          <mxGeometry x="152" y="180" width="120" height="60" as="geometry" />
        </mxCell>
        <mxCell id="o9ml3QlHLof98ENYdG0p-38" value="&lt;font style=&quot;font-size: 14px;&quot; face=&quot;Verdana&quot;&gt;Make bid for auction&lt;/font&gt;" style="rounded=1;whiteSpace=wrap;html=1;fillColor=#f8cecc;strokeColor=#b85450;fontSize=14;" vertex="1" parent="o9ml3QlHLof98ENYdG0p-56">
          <mxGeometry x="10" y="180" width="120" height="60" as="geometry" />
        </mxCell>
        <mxCell id="Nn5GspuChgT-CxSehB_H-2" value="&lt;font face=&quot;Verdana&quot; style=&quot;font-size: 14px;&quot;&gt;&lt;span style=&quot;font-size: 14px;&quot;&gt;Notify bidders&lt;/span&gt;&lt;/font&gt;" style="rounded=1;whiteSpace=wrap;html=1;fillColor=#f8cecc;strokeColor=#b85450;fontSize=14;" vertex="1" parent="o9ml3QlHLof98ENYdG0p-56">
          <mxGeometry x="10" y="393" width="120" height="60" as="geometry" />
        </mxCell>
        <mxCell id="Nn5GspuChgT-CxSehB_H-3" value="&lt;font style=&quot;font-size: 14px;&quot; face=&quot;Verdana&quot;&gt;No executor found&amp;nbsp;&lt;/font&gt;" style="rounded=1;whiteSpace=wrap;html=1;fillColor=#dae8fc;strokeColor=#6c8ebf;fontSize=14;" vertex="1" parent="o9ml3QlHLof98ENYdG0p-56">
          <mxGeometry x="152" y="321" width="120" height="60" as="geometry" />
        </mxCell>
        <mxCell id="o9ml3QlHLof98ENYdG0p-46" value="&lt;font face=&quot;Verdana&quot; style=&quot;font-size: 14px;&quot;&gt;&lt;span style=&quot;font-size: 14px;&quot;&gt;End auction&lt;/span&gt;&lt;/font&gt;" style="rounded=1;whiteSpace=wrap;html=1;fillColor=#f8cecc;strokeColor=#b85450;fontSize=14;" vertex="1" parent="o9ml3QlHLof98ENYdG0p-56">
          <mxGeometry x="10" y="281" width="120" height="60" as="geometry" />
        </mxCell>
        <mxCell id="o9ml3QlHLof98ENYdG0p-20" value="&lt;font style=&quot;font-size: 14px;&quot; face=&quot;Verdana&quot;&gt;Assign task to executor&lt;/font&gt;" style="rounded=1;whiteSpace=wrap;html=1;fillColor=#f8cecc;strokeColor=#b85450;fontSize=14;" vertex="1" parent="1">
          <mxGeometry x="363" y="313" width="120" height="60" as="geometry" />
        </mxCell>
        <mxCell id="o9ml3QlHLof98ENYdG0p-25" value="&lt;font face=&quot;Verdana&quot; style=&quot;font-size: 14px;&quot;&gt;&lt;span style=&quot;font-size: 14px;&quot;&gt;Task assigned to executor&lt;/span&gt;&lt;/font&gt;" style="rounded=1;whiteSpace=wrap;html=1;fillColor=#dae8fc;strokeColor=#6c8ebf;fontSize=14;" vertex="1" parent="1">
          <mxGeometry x="503" y="313" width="120" height="60" as="geometry" />
        </mxCell>
        <mxCell id="o9ml3QlHLof98ENYdG0p-39" value="&lt;font face=&quot;Verdana&quot; style=&quot;font-size: 14px;&quot;&gt;&lt;span style=&quot;font-size: 14px;&quot;&gt;Task started&lt;/span&gt;&lt;/font&gt;" style="rounded=1;whiteSpace=wrap;html=1;fillColor=#dae8fc;strokeColor=#6c8ebf;fontSize=14;" vertex="1" parent="1">
          <mxGeometry x="822" y="445" width="120" height="60" as="geometry" />
        </mxCell>
        <mxCell id="o9ml3QlHLof98ENYdG0p-31" value="&lt;font style=&quot;font-size: 14px;&quot; face=&quot;Verdana&quot;&gt;Start task&lt;/font&gt;" style="rounded=1;whiteSpace=wrap;html=1;fillColor=#f8cecc;strokeColor=#b85450;fontSize=14;" vertex="1" parent="1">
          <mxGeometry x="680" y="445" width="120" height="60" as="geometry" />
        </mxCell>
        <mxCell id="o9ml3QlHLof98ENYdG0p-32" value="&lt;font face=&quot;Verdana&quot; style=&quot;font-size: 14px;&quot;&gt;&lt;span style=&quot;font-size: 14px;&quot;&gt;Task completed&lt;/span&gt;&lt;/font&gt;" style="rounded=1;whiteSpace=wrap;html=1;fillColor=#dae8fc;strokeColor=#6c8ebf;fontSize=14;" vertex="1" parent="1">
          <mxGeometry x="822" y="517" width="120" height="60" as="geometry" />
        </mxCell>
        <mxCell id="Nn5GspuChgT-CxSehB_H-4" value="&lt;font style=&quot;font-size: 14px;&quot; face=&quot;Verdana&quot;&gt;Complete task&lt;/font&gt;" style="rounded=1;whiteSpace=wrap;html=1;fillColor=#f8cecc;strokeColor=#b85450;fontSize=14;" vertex="1" parent="1">
          <mxGeometry x="680" y="517" width="120" height="60" as="geometry" />
        </mxCell>
        <mxCell id="AOeFMPT7QD6-nXeBE3NE-2" value="&lt;div style=&quot;font-size: 14px;&quot;&gt;&lt;b style=&quot;font-size: 14px;&quot;&gt;Legend&lt;/b&gt;&lt;/div&gt;&lt;ul style=&quot;font-size: 14px;&quot;&gt;&lt;li style=&quot;font-size: 14px;&quot;&gt;Surrounding Box = Bounded Context&lt;/li&gt;&lt;li style=&quot;font-size: 14px;&quot;&gt;Green Box = Aggregate&lt;/li&gt;&lt;li style=&quot;font-size: 14px;&quot;&gt;Red Box = Event Trigger&lt;/li&gt;&lt;li style=&quot;font-size: 14px;&quot;&gt;Blue Box = Domain Event&lt;/li&gt;&lt;/ul&gt;" style="text;html=1;strokeColor=default;fillColor=none;align=left;verticalAlign=middle;whiteSpace=wrap;rounded=0;fontSize=14;spacingTop=17;spacingBottom=2;strokeWidth=1;" vertex="1" parent="1">
          <mxGeometry x="37" y="582" width="280" height="117" as="geometry" />
        </mxCell>
        <mxCell id="AOeFMPT7QD6-nXeBE3NE-3" value="" style="rounded=1;whiteSpace=wrap;html=1;fillColor=#d5e8d4;strokeColor=default;fontSize=12;spacingTop=17;" vertex="1" parent="1">
          <mxGeometry x="60" y="641" width="10" height="10" as="geometry" />
        </mxCell>
        <mxCell id="AOeFMPT7QD6-nXeBE3NE-4" value="" style="rounded=1;whiteSpace=wrap;html=1;fillColor=#f8cecc;strokeColor=default;fontSize=12;spacingTop=17;" vertex="1" parent="1">
          <mxGeometry x="60" y="659" width="10" height="10" as="geometry" />
        </mxCell>
        <mxCell id="AOeFMPT7QD6-nXeBE3NE-5" value="" style="rounded=1;whiteSpace=wrap;html=1;fillColor=#dae8fc;strokeColor=default;fontSize=12;spacingTop=17;" vertex="1" parent="1">
          <mxGeometry x="60" y="677" width="10" height="10" as="geometry" />
        </mxCell>
        <mxCell id="AOeFMPT7QD6-nXeBE3NE-6" value="" style="rounded=1;whiteSpace=wrap;html=1;fontSize=12;spacingTop=17;" vertex="1" parent="1">
          <mxGeometry x="60" y="625" width="10" height="10" as="geometry" />
        </mxCell>
        <mxCell id="xt9q9h7l3XOOeNUgrFEZ-1" value="Event Storming Board" style="text;html=1;strokeColor=none;fillColor=none;align=left;verticalAlign=middle;whiteSpace=wrap;rounded=0;fontStyle=1;fontSize=20;" vertex="1" parent="1">
          <mxGeometry x="37" y="13" width="303" height="30" as="geometry" />
        </mxCell>
      </root>
    </mxGraphModel>
  </diagram>
</mxfile>
